<?xml version="1.0" standalone="no"?><!DOCTYPE svg PUBLIC "-//W3C//DTD SVG 1.1//EN" "http://www.w3.org/Graphics/SVG/1.1/DTD/svg11.dtd"><svg t="1560739785368" class="icon" style="" viewBox="0 0 1024 1024" version="1.1" xmlns="http://www.w3.org/2000/svg" p-id="4678" xmlns:xlink="http://www.w3.org/1999/xlink" width="200" height="200"><defs><style type="text/css"></style></defs><path d="M886.348599 492.812394L549.460459 176.659771A22.27148 22.27148 0 0 0 532.052865 170.771909a22.57014 22.57014 0 0 0-17.364928 5.845197L177.799798 492.812394a22.612806 22.612806 0 0 0 30.932612 32.937898l7.125167-6.655844v274.425597c0 55.465372 45.268277 100.605653 100.904312 100.605652h430.667284a100.861647 100.861647 0 0 0 100.904313-100.605652V735.153406a22.612806 22.612806 0 0 0-45.182946 0v58.366639c0 30.591286-25.044749 55.465372-55.721367 55.465372H316.761889c-30.719283 0-55.721367-24.874086-55.721367-55.465372V476.684771L532.095531 222.312039l271.055009 254.372732v123.00513a22.57014 22.57014 0 1 0 45.182946 0v-80.638119l7.082501 6.69851a22.57014 22.57014 0 1 0 30.932612-32.937898" p-id="4679"></path></svg>